<?xml version="1.0" encoding="UTF-8" standalone="no"?>
<svg
   xmlns:dc="http://purl.org/dc/elements/1.1/"
   xmlns:cc="http://creativecommons.org/ns#"
   xmlns:rdf="http://www.w3.org/1999/02/22-rdf-syntax-ns#"
   xmlns:svg="http://www.w3.org/2000/svg"
   xmlns="http://www.w3.org/2000/svg"
   width="24px"
   height="24px"
   viewBox="0 0 24 24"
   id="_24x24_On_Light_Wave"
   data-name="24x24/On Light/Wave"
   version="1.1">
  <metadata
     id="metadata9">
    <rdf:RDF>
      <cc:Work
         rdf:about="">
        <dc:format>image/svg+xml</dc:format>
        <dc:type
           rdf:resource="http://purl.org/dc/dcmitype/StillImage" />
        <dc:title></dc:title>
      </cc:Work>
    </rdf:RDF>
  </metadata>
  <defs
     id="defs7" />
  <rect
     id="view-box"
     width="24"
     height="24"
     fill="none" />
  <path
     id="Path"
     d="m 14.851657,14.862 c 1.364,-1.203 3.248,-2.836 5.614,-4.946 a -1.049,1.049 0 0 0 0.059,-1.466 -1.074,1.074 0 0 0 -1.479,-0.11 c -2.157,1.455 -3.86,2.66 -5.133,3.567 -0.455,0.326 -0.757,0.273 -0.9,0.1 -0.143,-0.173 -0.08,-0.413 0.307,-0.888 1.08,-1.336 2.56,-3.106 4.38,-5.352 a -1.028,1.028 0 0 0 -0.13,-1.447 -1.128,1.128 0 0 0 -1.516,0.062 q -3.415,3.207 -5.354,5.082 c -0.443,0.43 -0.667,0.492 -0.8609996,0.418 -0.194,-0.074 -0.313,-0.3 -0.1,-0.682 C 10.499657,7.846 11.541657,6.031 12.799657,3.713 a -1.07,1.07 0 0 0 -0.184,-1.469 -1.1,1.1 0 0 0 -1.494,0.108 l -5.7999996,7.669 c -0.193,0.255 -0.3,0.337 -0.471,0.3 -0.171,-0.037 -0.187,-0.148 -0.226,-0.455 -0.127,-1 -0.382,-3.238 -0.382,-3.238 a -1.176,1.176 0 0 0 -1.217,-0.953 -1.082,1.082 0 0 0 -1.026,1.078 v 9.354 a -6.072,6.072 0 0 0 3.228,5.09 -5.944,5.944 0 0 0 6.3439996,-0.245 l 8.98,-5.468 a -1.074,1.074 0 0 0 0.275,-1.458 -1.059,1.059 0 0 0 -1.437,-0.326 c -1.863,0.861 -3.313,1.534 -4.456,2.075 -0.323,0.153 -0.563,0.058 -0.64,-0.126 -0.077,-0.184 0.077,-0.363 0.558,-0.787 z"
     fill="#ffa458" />
</svg>
